<svg width="28" height="28" viewBox="0 0 28 28" fill="none" xmlns="http://www.w3.org/2000/svg">
<path fill-rule="evenodd" clip-rule="evenodd" d="M14.2783 1.61032H16.0304C16.4964 1.61032 16.8741 1.98808 16.8741 2.45407C16.8741 2.92006 16.4964 3.29782 16.0304 3.29782H14.3429C11.6674 3.29782 9.74565 3.29961 8.28317 3.49624C6.84496 3.6896 5.9779 4.05735 5.33705 4.69822C4.69618 5.33908 4.32843 6.20614 4.13506 7.64435C3.93843 9.10683 3.93665 11.0286 3.93665 13.7041C3.93665 16.3795 3.93843 18.3013 4.13506 19.7638C4.32843 21.202 4.69618 22.069 5.33705 22.7099C5.9779 23.3508 6.84496 23.7186 8.28317 23.9119C9.74565 24.1085 11.6674 24.1103 14.3429 24.1103C17.0184 24.1103 18.9401 24.1085 20.4026 23.9119C21.8408 23.7186 22.7078 23.3508 23.3487 22.7099C23.9897 22.069 24.3574 21.202 24.5507 19.7638C24.7473 18.3013 24.7491 16.3795 24.7491 13.7041V12.0166C24.7491 11.5506 25.1269 11.1728 25.5929 11.1728C26.0589 11.1728 26.4366 11.5506 26.4366 12.0166V13.7686C26.4366 16.3656 26.4366 18.4007 26.2232 19.9887C26.0046 21.6139 25.5487 22.8966 24.542 23.9032C23.5354 24.9099 22.2528 25.3658 20.6275 25.5844C19.0395 25.7978 17.0044 25.7978 14.4075 25.7978H14.2783C11.6814 25.7978 9.64623 25.7978 8.05832 25.5844C6.43299 25.3658 5.15046 24.9099 4.1438 23.9032C3.13714 22.8966 2.68113 21.6139 2.46261 19.9887C2.24912 18.4007 2.24913 16.3656 2.24915 13.7686V13.6395C2.24913 11.0426 2.24912 9.00741 2.46261 7.41949C2.68113 5.79416 3.13714 4.51164 4.1438 3.50498C5.15046 2.49832 6.43299 2.04231 8.05832 1.82379C9.64623 1.6103 11.6814 1.61031 14.2783 1.61032ZM19.7097 2.76448C21.2486 1.2256 23.7436 1.2256 25.2825 2.76448C26.8214 4.30335 26.8214 6.79835 25.2825 8.33722L17.8034 15.8164C17.3857 16.2341 17.124 16.4958 16.8321 16.7236C16.4882 16.9918 16.116 17.2217 15.7223 17.4094C15.388 17.5687 15.0369 17.6857 14.4765 17.8724L11.2089 18.9616C10.6057 19.1627 9.94055 19.0057 9.49089 18.5561C9.04124 18.1064 8.88423 17.4413 9.08532 16.838L10.1745 13.5704C10.3613 13.0101 10.4783 12.6589 10.6376 12.3247C10.8252 11.931 11.0552 11.5588 11.3235 11.2149C11.5512 10.9229 11.8129 10.6613 12.2306 10.2436L19.7097 2.76448ZM24.0892 3.95772C23.2094 3.07786 21.7829 3.07786 20.903 3.95772L20.4793 4.38142C20.5049 4.48926 20.5405 4.61775 20.5902 4.76106C20.7515 5.22576 21.0566 5.83774 21.6329 6.41406C22.2092 6.99037 22.8212 7.29546 23.2859 7.45669C23.4292 7.50641 23.5577 7.54214 23.6655 7.56768L24.0892 7.14398C24.9691 6.26412 24.9691 4.83758 24.0892 3.95772ZM22.3361 8.89705C21.7557 8.64741 21.0796 8.24721 20.4396 7.6073C19.7997 6.9674 19.3995 6.29124 19.1499 5.71079L13.4626 11.3981C12.994 11.8667 12.8102 12.0526 12.654 12.2527C12.4612 12.5 12.2958 12.7676 12.161 13.0507C12.0517 13.2799 11.9677 13.5273 11.7581 14.156L11.2722 15.6136L12.4333 16.7748L13.891 16.2889C14.5196 16.0793 14.767 15.9952 14.9963 15.886C15.2793 15.7511 15.547 15.5857 15.7943 15.3929C15.9944 15.2368 16.1802 15.0529 16.6488 14.5844L22.3361 8.89705Z" fill="#C14541"/>
</svg>
