<svg width="28" height="28" viewBox="0 0 28 28" fill="none" xmlns="http://www.w3.org/2000/svg">
<path d="M6.55862 9.69669C6.55862 6.5147 6.55862 4.92372 7.54714 3.9352C8.53565 2.94669 10.1266 2.94669 13.3086 2.94669H15.5586C18.7406 2.94669 20.3315 2.94669 21.3201 3.9352C22.3086 4.92372 22.3086 6.5147 22.3086 9.69669V18.6967C22.3086 21.8786 22.3086 23.4696 21.3201 24.4581C20.3315 25.4467 18.7406 25.4467 15.5586 25.4467H13.3086C10.1266 25.4467 8.53565 25.4467 7.54714 24.4581C6.55862 23.4696 6.55862 21.8786 6.55862 18.6967V9.69669Z" stroke="#C14541" stroke-width="1.5"/>
<path d="M6.55862 5.28238C5.46165 5.39028 4.72327 5.63414 4.17214 6.18526C3.18362 7.17377 3.18362 8.76477 3.18362 11.9468V16.4468C3.18362 19.6288 3.18362 21.2197 4.17214 22.2083C4.72327 22.7594 5.46165 23.0032 6.55862 23.1111" stroke="#C14541" stroke-width="1.5"/>
<path d="M22.3086 5.28238C23.4056 5.39028 24.1439 5.63414 24.6951 6.18526C25.6836 7.17377 25.6836 8.76477 25.6836 11.9468V16.4468C25.6836 19.6288 25.6836 21.2197 24.6951 22.2083C24.1439 22.7594 23.4056 23.0032 22.3086 23.1111" stroke="#C14541" stroke-width="1.5"/>
<path d="M11.0586 15.3217H17.8086" stroke="#C14541" stroke-width="1.5" stroke-linecap="round"/>
<path d="M11.0586 10.8217H17.8086" stroke="#C14541" stroke-width="1.5" stroke-linecap="round"/>
<path d="M11.0586 19.8217H14.4336" stroke="#C14541" stroke-width="1.5" stroke-linecap="round"/>
</svg>
